<svg xmlns="http://www.w3.org/2000/svg" width="830.667" height="830.667" preserveAspectRatio="xMidYMid meet" version="1.0" viewBox="0 0 623 623"><metadata>Created by potrace 1.11, written by Peter Selinger 2001-2013</metadata><g fill="#000" stroke="none"><path d="M1812 5458 c-30 -8 -44 -17 -91 -58 -9 -8 -68 -73 -130 -145 -63 -71 -130 -148 -150 -171 -40 -45 -146 -165 -174 -198 -10 -12 -42 -48 -70 -80 -29 -33 -90 -103 -136 -155 -46 -53 -102 -116 -123 -141 -22 -25 -66 -74 -98 -110 -32 -36 -79 -90 -105 -120 -53 -61 -164 -187 -180 -204 -51 -55 -105 -127 -117 -156 -8 -19 -13 -54 -11 -77 2 -34 -5 -57 -33 -108 -56 -101 -53 -164 10 -233 26 -28 183 -133 340 -227 18 -11 113 -69 210 -130 97 -60 209 -130 250 -155 40 -25 94 -58 119 -74 l46 -29 -97 -126 c-53 -69 -99 -128 -102 -131 -3 -3 -25 -32 -50 -65 -25 -33 -47 -62 -50 -65 -4 -3 -33 -41 -65 -85 -33 -44 -62 -82 -65 -85 -3 -3 -34 -43 -70 -90 -35 -47 -67 -87 -70 -90 -4 -3 -11 -12 -16 -21 -5 -9 -23 -34 -41 -55 -26 -32 -119 -152 -246 -318 -12 -16 -59 -76 -105 -135 -129 -167 -157 -242 -120 -329 25 -60 63 -95 296 -270 217 -164 264 -192 327 -192 85 0 140 44 262 210 31 41 61 80 67 85 6 6 45 55 86 110 41 55 79 105 85 112 5 7 15 18 20 25 87 114 111 144 117 146 5 2 8 10 8 17 0 7 3 15 8 17 4 2 30 32 57 68 28 36 55 70 60 76 6 6 21 27 35 47 14 20 28 37 33 37 4 0 7 6 7 14 0 8 4 16 8 18 4 2 37 41 72 88 36 47 67 87 70 90 3 3 42 52 85 110 44 58 82 107 85 110 3 3 18 23 35 45 16 22 32 42 35 45 3 3 21 26 39 52 26 37 42 48 77 57 62 16 95 54 216 247 163 260 176 291 164 359 -13 69 -74 113 -674 485 -315 195 -572 357 -572 360 0 3 15 21 33 40 18 19 59 67 92 105 33 39 65 75 71 80 6 6 44 48 84 95 69 80 183 211 205 234 6 6 55 63 110 126 117 134 156 178 172 195 46 47 156 182 168 204 47 93 26 147 -106 266 -280 252 -314 274 -397 253z" transform="translate(0.000000,623.000000) scale(0.100000,-0.100000)"/><path d="M3433 5230 c-27 -12 -52 -34 -70 -61 l-28 -43 -3 -2113 c-2 -2338 -7 -2165 61 -2215 64 -47 73 -48 360 -46 264 3 273 4 309 26 20 13 47 40 60 60 l23 37 3 895 c2 602 6 896 13 899 22 7 87 78 349 381 150 173 289 334 309 356 20 23 59 67 86 99 28 32 55 63 60 69 6 6 35 40 65 76 30 36 60 70 66 75 9 9 85 96 164 189 14 16 35 40 48 54 12 14 41 48 65 76 23 27 60 71 82 96 22 26 65 75 95 110 30 35 70 80 87 99 18 20 52 59 75 88 24 29 61 61 83 71 43 22 85 70 85 100 0 10 12 34 26 53 40 54 64 105 64 140 0 34 -33 96 -62 117 -15 11 -18 28 -18 96 0 107 -25 160 -90 193 l-43 23 -860 0 c-525 0 -866 4 -877 10 -10 5 -132 9 -281 9 -234 -1 -269 -3 -306 -19z m1326 -757 c-12 -15 -50 -59 -165 -193 -12 -14 -52 -61 -90 -105 -38 -44 -73 -85 -79 -91 -5 -6 -30 -34 -55 -63 -25 -29 -54 -63 -65 -75 -11 -12 -40 -46 -65 -75 -25 -29 -55 -64 -67 -78 l-23 -24 0 360 0 361 311 0 c295 0 311 -1 298 -17z" transform="translate(0.000000,623.000000) scale(0.100000,-0.100000)"/></g></svg>