<?xml version="1.0" standalone="no"?>
<!DOCTYPE svg PUBLIC "-//W3C//DTD SVG 20010904//EN"
 "http://www.w3.org/TR/2001/REC-SVG-20010904/DTD/svg10.dtd">
<svg version="1.0" xmlns="http://www.w3.org/2000/svg"
 width="500.000000pt" height="500.000000pt" viewBox="0 0 500.000000 500.000000"
 preserveAspectRatio="xMidYMid meet">
<metadata>
Created by potrace 1.16, written by Peter Selinger 2001-2019
</metadata>
<g transform="translate(0.000000,500.000000) scale(0.100000,-0.100000)"
fill="#000000" stroke="none">
<path d="M0 2500 l0 -2500 2500 0 2500 0 0 2500 0 2500 -2500 0 -2500 0 0
-2500z m3880 -5 l0 -1375 -1375 0 -1375 0 0 1375 0 1375 1375 0 1375 0 0
-1375z"/>
<path d="M2085 3324 c-11 -2 -54 -12 -95 -21 -41 -9 -79 -19 -85 -23 -5 -4
-22 -10 -36 -13 -74 -18 -205 -125 -241 -198 -41 -85 -49 -113 -50 -178 -1
-115 61 -213 207 -329 40 -32 234 -112 270 -112 14 0 25 -4 25 -9 0 -5 22 -11
49 -15 51 -7 73 -23 91 -70 10 -26 8 -32 -17 -58 -59 -62 -221 -168 -257 -168
-6 0 -22 -6 -36 -13 -14 -8 -51 -28 -82 -45 -32 -16 -72 -33 -89 -37 -17 -4
-65 -24 -106 -45 -42 -22 -88 -42 -104 -45 -16 -4 -43 -14 -60 -22 -43 -21
-112 -89 -107 -105 6 -18 79 -26 223 -27 157 0 366 26 389 50 6 5 18 9 29 9
10 0 37 8 60 19 23 10 61 27 85 37 23 10 42 21 42 26 0 4 6 8 14 8 44 0 286
220 286 260 0 9 6 22 12 28 9 9 13 48 13 120 0 102 -2 110 -33 165 -18 33 -47
72 -65 89 -41 39 -136 101 -179 118 -18 7 -47 19 -65 26 -17 8 -37 14 -45 14
-8 0 -18 3 -21 7 -4 3 -46 16 -93 29 -68 17 -92 28 -115 54 -23 25 -27 35 -19
50 14 25 119 100 141 100 9 0 19 5 21 11 3 8 40 13 106 14 102 3 132 12 132
41 0 8 4 14 8 14 15 0 45 84 45 127 0 46 -31 93 -63 93 -9 0 -20 4 -25 9 -11
11 -130 22 -160 15z"/>
<path d="M2677 3266 c-87 -86 -99 -161 -39 -248 29 -42 30 -45 20 -113 -5 -39
-11 -90 -15 -115 -4 -34 -16 -56 -48 -92 -69 -77 -79 -164 -29 -255 22 -39 23
-48 14 -124 -5 -45 -18 -100 -29 -123 -17 -36 -18 -50 -10 -115 5 -40 13 -81
18 -90 5 -9 12 -35 16 -58 4 -24 11 -45 16 -49 5 -3 9 -13 9 -23 0 -10 16 -34
36 -55 31 -32 38 -35 57 -25 32 17 54 43 78 91 11 24 24 50 29 59 5 9 12 33
15 53 4 20 11 38 15 41 5 3 11 24 15 48 4 23 12 47 17 54 5 6 12 46 15 88 3
41 10 78 14 81 5 3 9 20 9 37 0 48 13 61 46 52 47 -13 335 -18 347 -6 6 6 22
11 35 11 24 0 103 32 130 53 72 56 126 147 142 237 21 116 22 130 13 142 -6 7
-13 32 -17 54 -3 23 -13 54 -21 70 -8 16 -15 35 -15 42 0 6 -4 12 -9 12 -5 0
-12 11 -15 24 -8 32 -112 137 -169 170 -105 62 -214 87 -402 91 -74 2 -123 8
-149 19 -61 26 -79 21 -139 -38z m513 -322 c72 -37 100 -85 100 -173 0 -57 -1
-60 -35 -80 -19 -11 -50 -23 -70 -27 -19 -3 -38 -10 -41 -15 -8 -13 -118 -11
-164 3 -37 12 -40 15 -40 50 0 20 5 40 10 43 6 3 10 25 10 48 0 23 3 73 7 111
l6 69 91 -6 c59 -3 103 -11 126 -23z"/>
</g>
</svg>
